PathFileType	4	(X/Y/Z)	OpenSim_Sub08_CSStiffKnee_Gyro.trc
DataRate	CameraRate	NumFrames	NumMarkers	Units	OrigDataRate	OrigDataStartFrame	OrigNumFrames
100	100	17	8	m	100	661	5282
Frame#	Time	torso_imu_offset_imu	pelvis_imu_offset_imu	tibia_r_imu_offset_imu	femur_r_imu_offset_imu	tibia_l_imu_offset_imu	femur_l_imu_offset_imu	toes_r_imu_offset_imu	toes_l_imu_offset_imu
				X1	Y1	Z1	X2	Y2	Z2	X3	Y3	Z3	X4	Y4	Z4	X5	Y5	Z5	X6	Y6	Z6	X7	Y7	Z7	X8		Y8	Z8	

661	6.60000000	-0.26960540	-0.01660986	0.14092551	0.42605409	-0.20192777	0.02978694	0.36580759	0.52400986	1.39767481	-0.04126973	0.13570074	0.37334307	0.28762458	-0.11435282	1.06610961	0.22193920	-0.16012050	0.55120136	-0.04305401	1.12255098	0.72706173	0.16866081	-0.27608465	0.03791583
662	6.61000000	-0.24058760	0.01705671	0.15733722	0.45088657	-0.18546310	0.07288065	0.33110029	0.48685887	1.22884379	0.02367727	0.08892527	0.26566482	0.38308344	-0.08476240	1.09851289	0.34430199	-0.11701873	0.60826541	-0.06894475	0.98493009	0.65863389	0.22910100	-0.29932491	0.04616443
663	6.62000000	-0.22535760	0.06423613	0.16132534	0.49335339	-0.14572572	0.11365146	0.18404289	0.39215441	1.06830839	0.06638740	0.01233493	0.17948663	0.46668267	-0.03141922	1.12459320	0.44376120	-0.10641108	0.64532636	-0.12338860	0.91845652	0.63134223	0.25715545	-0.30693609	0.06508044
664	6.63000000	-0.20962177	0.11474575	0.15481066	0.50154186	-0.10966715	0.14521462	0.07927516	0.28908687	0.85813077	0.08389777	-0.05701200	0.11365902	0.54124625	0.02012264	1.14217205	0.54677683	-0.11116221	0.63211753	-0.08928135	0.96439571	0.59383159	0.27877619	-0.34806385	0.08051943
665	6.64000000	-0.18884306	0.15090887	0.15704353	0.48893491	-0.09036819	0.17103405	0.11225533	0.19383711	0.60452705	0.13250964	-0.10725107	0.05494729	0.61225671	-0.01079860	1.12896623	0.63258187	-0.10691384	0.59731415	0.04697388	0.90220553	0.47276930	0.28801567	-0.37751665	0.15443572
666	6.65000000	-0.16941685	0.19151940	0.16112971	0.47713599	-0.08365758	0.19990082	0.06724675	0.07579430	0.39140368	0.21201805	-0.13187308	0.00013695	0.62145518	-0.06822698	1.13236292	0.74343743	-0.09399380	0.58725574	0.10591647	0.67195442	0.32471484	0.18569974	-0.39457407	0.26711806
667	6.66000000	-0.14525415	0.23693227	0.17572951	0.45362301	-0.10073999	0.22512106	-0.00381322	-0.02905407	0.22171312	0.29411365	-0.12323959	-0.05296646	0.60528983	-0.08401449	1.16433210	0.90226652	-0.06338233	0.62493166	-0.01798075	0.40969543	0.21341808	0.24402886	-0.47968183	0.25251268
668	6.67000000	-0.13198906	0.27662015	0.18878187	0.42052161	-0.13083446	0.24022369	0.04523551	-0.11862365	0.04125622	0.37433946	-0.11559532	-0.10689687	0.65552114	-0.06481805	1.19143767	1.02085149	0.00733149	0.66731064	-0.10401046	0.23354075	0.13099184	0.37097571	-0.59920374	0.16690911
669	6.68000000	-0.12040860	0.31839839	0.19475275	0.39979769	-0.16185928	0.24962905	0.11078155	-0.23250069	-0.15898038	0.44116465	-0.12920090	-0.18011457	0.70666636	-0.00822482	1.23623809	1.10128741	0.08179135	0.69429892	-0.15433203	0.11822694	0.07861669	0.36052155	-0.73609057	0.14694300
670	6.69000000	-0.10409815	0.35621929	0.20351314	0.40259312	-0.18254828	0.25517199	0.17832442	-0.36131659	-0.37103372	0.51546519	-0.15963171	-0.26968537	0.70803553	-0.00515980	1.32358483	1.13484626	0.17979509	0.75895106	-0.12750291	-0.07540100	0.01536615	0.37383596	-0.87977496	0.10964414
671	6.70000000	-0.08770453	0.40810557	0.20528670	0.41053359	-0.20187323	0.24245175	0.25267552	-0.44653519	-0.54141776	0.55051495	-0.20270625	-0.37215884	0.70116991	0.01836902	1.43045596	1.05815567	0.29346739	0.81360995	-0.27930984	-0.13424131	-0.02102153	0.42318635	-1.02719608	0.01024731
672	6.71000000	-0.06227134	0.46524206	0.20184369	0.39281915	-0.25066966	0.22874139	0.32936687	-0.51756277	-0.68981738	0.48538590	-0.24193429	-0.47157666	0.68375335	0.06530896	1.53920183	0.90761918	0.35484021	0.81541463	0.26530316	-1.27056627	-0.28119591	0.45949626	-1.21876971	-0.08450688
673	6.72000000	-0.03857772	0.52637933	0.19111978	0.33937231	-0.29481100	0.21518383	0.38924851	-0.66167509	-0.78775510	0.35029183	-0.32285373	-0.56598991	0.65073582	0.08811025	1.61980121	0.72079149	0.37366490	0.80028802	2.32690372	-2.21562075	-0.99709684	0.38619009	-1.46356632	-0.15046381
674	6.73000000	-0.01244090	0.58793175	0.18111145	0.24294399	-0.29378709	0.20341528	0.60935222	-0.88336673	-0.92168072	0.14593764	-0.47538117	-0.67932407	0.58916575	0.11090255	1.69292483	0.50220235	0.38536244	0.76127028	2.55771234	-2.96859448	-0.95283448	0.35590299	-1.71146087	-0.18764340
675	6.74000000	0.02540333	0.63115692	0.16852917	0.16633274	-0.25621301	0.20026841	0.95458197	-1.13296348	-1.05895102	-0.03494265	-0.62627285	-0.78836469	0.49845604	0.13116668	1.82027883	0.28604272	0.37860586	0.69184547	-0.02808821	-3.37082021	-0.07407998	0.39786045	-2.02118706	-0.17547284
676	6.75000000	0.07316633	0.66556246	0.15905610	0.13956581	-0.17482760	0.20826135	0.16981738	-1.04883823	-0.62584221	-0.03547990	-0.72786081	-0.90993417	0.45225133	0.15027309	1.99114221	0.10642440	0.34329176	0.57420159	1.01992226	-2.86190356	-0.47452233	0.46042271	-2.40396415	-0.08008536
677	6.76000000	0.12368186	0.68625951	0.16692592	0.06375516	-0.01000007	0.23105384	-0.15132500	-0.73917521	-0.03685701	0.10180900	-0.74310041	-1.01101564	0.51463590	0.15840309	2.16359069	-0.00235770	0.33214248	0.40045630	2.05152794	-3.20671266	-1.14451457	0.36163170	-2.84146158	0.05671403
